<svg xmlns="http://www.w3.org/2000/svg" xmlns:xlink="http://www.w3.org/1999/xlink" viewBox="0,0,256,256" width="50px" height="50px" fill-rule="nonzero"><g fill="#000000" fill-rule="nonzero" stroke="none" stroke-width="1" stroke-linecap="butt" stroke-linejoin="miter" stroke-miterlimit="10" stroke-dasharray="" stroke-dashoffset="0" font-family="none" font-weight="none" font-size="none" text-anchor="none" style="mix-blend-mode: normal"><g transform="translate(245.76,0) rotate(90) scale(5.12,5.12)"><path d="M25,3c-2.75,0 -5,2.25 -5,5c0,2.75 2.25,5 5,5c2.75,0 5,-2.25 5,-5c0,-2.75 -2.25,-5 -5,-5zM25,5c1.66797,0 3,1.33203 3,3c0,1.66797 -1.33203,3 -3,3c-1.66797,0 -3,-1.33203 -3,-3c0,-1.66797 1.33203,-3 3,-3zM37,7.5c-3.02734,0 -5.5,2.47266 -5.5,5.5c0,3.02734 2.47266,5.5 5.5,5.5c3.02734,0 5.5,-2.47266 5.5,-5.5c0,-3.02734 -2.47266,-5.5 -5.5,-5.5zM13,8.5c-2.47266,0 -4.5,2.02734 -4.5,4.5c0,2.47266 2.02734,4.5 4.5,4.5c2.47266,0 4.5,-2.02734 4.5,-4.5c0,-2.47266 -2.02734,-4.5 -4.5,-4.5zM37,9.5c1.94531,0 3.5,1.55469 3.5,3.5c0,1.94531 -1.55469,3.5 -3.5,3.5c-1.94531,0 -3.5,-1.55469 -3.5,-3.5c0,-1.94531 1.55469,-3.5 3.5,-3.5zM13,10.5c1.39063,0 2.5,1.10938 2.5,2.5c0,1.39063 -1.10937,2.5 -2.5,2.5c-1.39062,0 -2.5,-1.10937 -2.5,-2.5c0,-1.39062 1.10938,-2.5 2.5,-2.5zM8,21c-2.19922,0 -4,1.80078 -4,4c0,2.19922 1.80078,4 4,4c2.19922,0 4,-1.80078 4,-4c0,-2.19922 -1.80078,-4 -4,-4zM8,23c1.11719,0 2,0.88281 2,2c0,1.11719 -0.88281,2 -2,2c-1.11719,0 -2,-0.88281 -2,-2c0,-1.11719 0.88281,-2 2,-2zM42,23c-1.09375,0 -2,0.90625 -2,2c0,1.09375 0.90625,2 2,2c1.09375,0 2,-0.90625 2,-2c0,-1.09375 -0.90625,-2 -2,-2zM13,33.5c-1.92187,0 -3.5,1.57813 -3.5,3.5c0,1.92188 1.57813,3.5 3.5,3.5c1.92188,0 3.5,-1.57812 3.5,-3.5c0,-1.92187 -1.57812,-3.5 -3.5,-3.5zM37,34.5c-1.36719,0 -2.5,1.13281 -2.5,2.5c0,1.36719 1.13281,2.5 2.5,2.5c1.36719,0 2.5,-1.13281 2.5,-2.5c0,-1.36719 -1.13281,-2.5 -2.5,-2.5zM13,35.5c0.83984,0 1.5,0.66016 1.5,1.5c0,0.83984 -0.66016,1.5 -1.5,1.5c-0.83984,0 -1.5,-0.66016 -1.5,-1.5c0,-0.83984 0.66016,-1.5 1.5,-1.5zM37,36.5c0.28906,0 0.5,0.21094 0.5,0.5c0,0.28906 -0.21094,0.5 -0.5,0.5c-0.28906,0 -0.5,-0.21094 -0.5,-0.5c0,-0.28906 0.21094,-0.5 0.5,-0.5zM25,39c-1.64453,0 -3,1.35547 -3,3c0,1.64453 1.35547,3 3,3c1.64453,0 3,-1.35547 3,-3c0,-1.64453 -1.35547,-3 -3,-3zM25,41c0.5625,0 1,0.4375 1,1c0,0.5625 -0.4375,1 -1,1c-0.5625,0 -1,-0.4375 -1,-1c0,-0.5625 0.4375,-1 1,-1z"></path></g></g></svg>